<svg xmlns="http://www.w3.org/2000/svg">
  <defs>
    <symbol id="icon-Logo" viewBox="0 0 38 32">
<path d="M21.278 9.64l-0.71-0.571c-0.111-0.095-0.253-0.139-0.395-0.124s-0.273 0.088-0.364 0.204l-9.825 11.897 0.152 0.177 2.433-2.366c-0.081-0.034-0.148-0.098-0.19-0.179s-0.055-0.175-0.037-0.265c0.017-0.090 0.064-0.171 0.132-0.229s0.153-0.088 0.241-0.087c0.079 0 0.156 0.027 0.219 0.076s0.11 0.119 0.133 0.198l3.208-3.137c0.049-0.042 0.11-0.064 0.173-0.064s0.124 0.023 0.173 0.064l0.163 0.126c0.055 0.042 0.123 0.060 0.19 0.052s0.129-0.043 0.173-0.097l4.195-4.96c0.045-0.049 0.079-0.108 0.1-0.172s0.029-0.133 0.023-0.2-0.026-0.133-0.058-0.192c-0.032-0.059-0.076-0.11-0.129-0.149z"></path>
<path d="M25.895 12.989c-2.15 1.613-4.559 2.804-7.11 3.514-2.532 0.679-5.123 1.085-7.733 1.211 0.053 0.406 0.147 0.804 0.282 1.189 1.474 1.406 12.573-0.994 14.741-3.771 0.461-0.577-0.179-2.143-0.179-2.143zM12.715 18.857c-0.073 0-0.144-0.023-0.205-0.066s-0.108-0.103-0.136-0.174c-0.028-0.071-0.035-0.149-0.021-0.224s0.049-0.145 0.101-0.199c0.052-0.054 0.117-0.091 0.189-0.106s0.146-0.007 0.213 0.022c0.067 0.029 0.125 0.079 0.165 0.143s0.062 0.139 0.062 0.216c0.001 0.051-0.008 0.102-0.027 0.15s-0.045 0.091-0.080 0.127-0.075 0.065-0.12 0.084c-0.045 0.019-0.093 0.029-0.142 0.028z"></path>
<path d="M2.229 12.166l0.087-0.394 1.409 0.337c0.116 0.226 0.188 0.475 0.211 0.731 0.027 0.271 0.010 0.546-0.049 0.811-0.070 0.369-0.231 0.712-0.466 0.994-0.224 0.267-0.512 0.464-0.835 0.571-0.332 0.108-0.685 0.122-1.024 0.040-0.34-0.077-0.653-0.251-0.905-0.503-0.249-0.242-0.427-0.553-0.515-0.897-0.097-0.374-0.097-0.769 0-1.143 0.058-0.28 0.163-0.547 0.309-0.789 0.138-0.22 0.324-0.402 0.542-0.531l0.195 0.314c-0.187 0.121-0.347 0.282-0.47 0.473s-0.207 0.408-0.245 0.635c-0.067 0.296-0.062 0.604 0.016 0.897 0.073 0.278 0.217 0.529 0.417 0.726 0.206 0.21 0.463 0.354 0.742 0.417 0.271 0.080 0.558 0.080 0.829 0 0.26-0.090 0.493-0.25 0.677-0.463 0.189-0.23 0.32-0.507 0.379-0.806 0.089-0.362 0.066-0.744-0.065-1.091l-1.241-0.331z"></path>
<path d="M5.296 8.571l-1.263 1.777 0.542 1.023-0.249 0.354-2.005-3.857 0.233-0.337 4.081 0.926-0.255 0.354-1.084-0.24zM4.939 8.48l-2.168-0.514 1.084 2.051 1.084-1.537z"></path>
<path d="M4.939 4.886l0.325-0.257 2.065 2.914 1.702-1.343 0.206 0.291-2.021 1.594-2.276-3.2z"></path>
<path d="M8.353 2.503l0.363-0.171 1.431 3.303 1.935-0.926 0.141 0.331-2.298 1.103-1.572-3.64z"></path>
<path d="M15.496 3.817l0.081 0.36-2.612 0.646-0.867-3.897 2.536-0.623 0.076 0.354-2.168 0.531 0.309 1.383 1.908-0.474 0.081 0.354-1.913 0.469 0.325 1.446 2.244-0.549z"></path>
<path d="M19.219 3.96l-0.905-1.257c-0.101 0.006-0.202 0.006-0.303 0l-1.019 0.034 0.038 1.269h-0.401l-0.125-4 1.442-0.006c0.408-0.040 0.815 0.076 1.149 0.326 0.141 0.119 0.254 0.271 0.331 0.443s0.116 0.361 0.114 0.551c0.016 0.282-0.054 0.563-0.201 0.8-0.156 0.228-0.376 0.398-0.629 0.486l0.948 1.337-0.439 0.017zM18.839 2.080c0.097-0.094 0.173-0.211 0.221-0.34s0.067-0.269 0.055-0.408c0.003-0.139-0.024-0.278-0.080-0.405s-0.137-0.238-0.24-0.327c-0.25-0.179-0.55-0.261-0.851-0.234l-1.030 0.040 0.065 2 1.008-0.034c0.307 0.012 0.609-0.091 0.851-0.291z"></path>
<path d="M22.085 2.897l-0.195 1.366-0.396-0.063 0.201-1.343-1.122-2.857 0.423 0.069 0.959 2.434 1.626-2.017 0.379 0.086-1.875 2.326z"></path>
<path d="M27.445 2.657l0.471 0.646-0.206 0.171-0.471-0.663-0.298 0.749-0.228-0.103 0.303-0.749-0.78 0.109v-0.274l0.77-0.091-0.477-0.646 0.211-0.171 0.417 0.651 0.293-0.754 0.233 0.103-0.276 0.766 0.78-0.114v0.28l-0.742 0.091z"></path>
<path d="M29.255 7.263c-0.128-0.208-0.208-0.445-0.233-0.691l0.32-0.149c0.024 0.226 0.094 0.445 0.206 0.64 0.121 0.219 0.279 0.412 0.466 0.571 0.193 0.195 0.44 0.321 0.704 0.36 0.096 0.009 0.192-0.006 0.281-0.045s0.167-0.1 0.229-0.178c0.045-0.052 0.079-0.114 0.101-0.181s0.030-0.138 0.024-0.208c-0.018-0.139-0.062-0.273-0.13-0.394-0.102-0.175-0.212-0.345-0.331-0.509-0.144-0.199-0.275-0.409-0.39-0.629-0.088-0.164-0.137-0.349-0.141-0.537-0-0.212 0.075-0.416 0.211-0.571 0.118-0.151 0.274-0.264 0.45-0.326 0.197-0.060 0.405-0.060 0.602 0 0.253 0.087 0.487 0.227 0.688 0.411 0.167 0.146 0.315 0.315 0.439 0.503 0.115 0.174 0.201 0.367 0.255 0.571l-0.309 0.171c-0.054-0.19-0.134-0.372-0.238-0.537-0.104-0.148-0.226-0.281-0.363-0.394-0.19-0.194-0.436-0.317-0.699-0.349-0.097-0.009-0.194 0.008-0.283 0.049s-0.167 0.104-0.227 0.185c-0.046 0.051-0.081 0.113-0.103 0.18s-0.029 0.138-0.022 0.209c0.013 0.144 0.057 0.283 0.13 0.406 0.076 0.131 0.184 0.303 0.331 0.509 0.145 0.195 0.276 0.401 0.39 0.617 0.090 0.164 0.14 0.348 0.146 0.537 0 0.212-0.075 0.416-0.211 0.571-0.119 0.153-0.277 0.266-0.455 0.326-0.196 0.062-0.405 0.062-0.602 0-0.255-0.087-0.491-0.227-0.694-0.411-0.219-0.201-0.402-0.441-0.542-0.709z"></path>
<path d="M34.707 8.097l-0.764-1.143 0.282-0.211 1.761 2.651-0.282 0.211-0.764-1.143-2.829 2.086-0.228-0.349 2.823-2.103z"></path>
<path d="M33.493 12.794c0.097-0.345 0.285-0.655 0.542-0.891 0.252-0.238 0.558-0.401 0.889-0.474 0.337-0.082 0.688-0.068 1.019 0.040 0.319 0.111 0.605 0.308 0.829 0.571 0.233 0.283 0.392 0.626 0.461 0.994 0.090 0.361 0.090 0.741 0 1.103-0.099 0.344-0.287 0.652-0.542 0.891-0.259 0.244-0.573 0.413-0.912 0.491s-0.691 0.062-1.023-0.046c-0.321-0.106-0.608-0.304-0.829-0.571-0.232-0.282-0.391-0.622-0.461-0.989-0.083-0.37-0.074-0.755 0.027-1.12zM34.203 14.611c0.181 0.217 0.415 0.377 0.677 0.463 0.27 0.083 0.555 0.092 0.83 0.028s0.53-0.199 0.742-0.394c0.2-0.194 0.348-0.441 0.428-0.714 0.076-0.289 0.083-0.593 0.022-0.886s-0.19-0.565-0.374-0.794c-0.189-0.218-0.431-0.378-0.699-0.463-0.273-0.077-0.561-0.077-0.835 0-0.276 0.056-0.531 0.192-0.737 0.394-0.202 0.195-0.35 0.444-0.428 0.72-0.074 0.29-0.074 0.596 0 0.886 0.059 0.284 0.188 0.546 0.374 0.76z"></path>
<path d="M33.081 19.428l1.404-0.571c0-0.103 0.032-0.206 0.060-0.314l0.266-1.034-1.149-0.314 0.103-0.406 3.663 1.034-0.368 1.446c-0.083 0.422-0.306 0.799-0.629 1.063-0.148 0.109-0.318 0.18-0.497 0.207s-0.361 0.012-0.533-0.047c-0.261-0.060-0.496-0.212-0.664-0.431s-0.261-0.492-0.262-0.775l-1.496 0.571 0.103-0.429zM34.897 19.588c0.063 0.121 0.15 0.228 0.253 0.314s0.222 0.148 0.35 0.184c0.127 0.036 0.26 0.044 0.39 0.024s0.255-0.067 0.368-0.139c0.239-0.203 0.402-0.488 0.461-0.806l0.26-1.029-1.837-0.52-0.26 1.029c-0.1 0.306-0.094 0.64 0.016 0.943z"></path>
<path d="M31.136 23.109l-0.276-0.223 1.626-2.257 3.024 2.417-1.572 2.189-0.276-0.223 1.328-1.846-1.084-0.863-1.187 1.651-0.271-0.217 1.214-1.651-1.122-0.897-1.404 1.92z"></path>
<path d="M29.868 27.663l-0.775 0.046v-0.274l0.775-0.006-0.417-0.68 0.211-0.143 0.412 0.686 0.336-0.766 0.233 0.131-0.369 0.72 0.775-0.046v0.28h-0.786l0.417 0.68-0.211 0.143-0.412-0.686-0.358 0.743-0.228-0.137 0.396-0.691z"></path>
<path d="M22.823 27.206l0.656 0.383c0.11-0.223 0.263-0.418 0.45-0.574s0.403-0.268 0.634-0.329c0.215-0.071 0.442-0.096 0.667-0.074 0.195 0.016 0.382 0.087 0.542 0.206 0.144 0.115 0.251 0.275 0.303 0.457 0.065 0.226 0.054 0.468-0.032 0.686-0.136 0.296-0.319 0.564-0.542 0.794 0.179 0.101 0.344 0.226 0.493 0.371 0.102 0.111 0.178 0.246 0.222 0.394 0.028 0.115 0.029 0.236 0.005 0.352s-0.074 0.224-0.146 0.317c-0.145 0.22-0.36 0.376-0.607 0.44-0.216 0.087-0.456 0.087-0.672 0-0.096-0.044-0.182-0.11-0.249-0.195s-0.116-0.184-0.141-0.291c-0.057-0.189-0.043-0.393 0.038-0.571 0.124-0.26 0.287-0.497 0.482-0.703l-1.306-0.766c-0.050 0.269-0.061 0.545-0.032 0.817h-0.331c-0.022-0.336 0.015-0.673 0.108-0.994l-0.683-0.4 0.141-0.32zM23.765 27.777l1.436 0.84c0.188-0.19 0.344-0.412 0.461-0.657 0.060-0.166 0.060-0.349 0-0.514-0.025-0.099-0.072-0.19-0.138-0.265s-0.149-0.131-0.241-0.164c-0.225-0.080-0.469-0.080-0.694 0-0.184 0.051-0.355 0.144-0.501 0.273s-0.264 0.289-0.345 0.47l0.022 0.017zM25.803 30.063c0.035-0.063 0.058-0.134 0.065-0.206s0-0.147-0.022-0.216c-0.033-0.113-0.093-0.215-0.173-0.297-0.138-0.123-0.289-0.228-0.45-0.314-0.164 0.171-0.308 0.363-0.428 0.571-0.066 0.13-0.081 0.281-0.043 0.423 0.017 0.065 0.047 0.126 0.088 0.178s0.092 0.095 0.15 0.124c0.138 0.055 0.29 0.055 0.428 0 0.147-0.041 0.276-0.137 0.363-0.269l0.022 0.006z"></path>
<path d="M16.216 31.611l0.076-4h0.385l-0.060 3.2 1.539-2.663h0.19l1.442 2.709 0.054-3.183h0.385l-0.070 4h-0.331l-1.593-2.989-1.685 2.931-0.331-0.006z"></path>
<path d="M14.33 27.429c0.248 0.249 0.425 0.566 0.512 0.915s0.080 0.717-0.019 1.062c-0.089 0.354-0.267 0.675-0.515 0.931-0.241 0.25-0.543 0.424-0.873 0.503-0.348 0.083-0.709 0.071-1.051-0.034-0.341-0.088-0.655-0.267-0.91-0.52-0.244-0.246-0.419-0.558-0.504-0.903-0.083-0.356-0.077-0.729 0.018-1.082s0.276-0.673 0.524-0.93c0.237-0.249 0.532-0.427 0.856-0.514 0.346-0.082 0.706-0.071 1.046 0.034 0.344 0.092 0.66 0.277 0.916 0.537zM12.482 27.229c-0.265 0.065-0.507 0.208-0.699 0.411-0.2 0.21-0.342 0.472-0.412 0.76-0.076 0.286-0.076 0.588 0 0.874 0.064 0.278 0.201 0.532 0.396 0.731 0.204 0.21 0.456 0.362 0.732 0.44 0.276 0.074 0.564 0.074 0.84 0 0.265-0.069 0.508-0.211 0.704-0.411 0.199-0.21 0.341-0.473 0.412-0.76 0.076-0.288 0.076-0.592 0-0.88-0.069-0.277-0.208-0.53-0.401-0.731-0.205-0.211-0.459-0.36-0.737-0.434-0.273-0.080-0.562-0.080-0.835 0z"></path>
<path d="M8.38 24.571l0.146 1.571c0.093 0.042 0.183 0.090 0.271 0.143l0.883 0.537 0.596-1.109 0.352 0.211-1.897 3.446-1.236-0.749c-0.365-0.193-0.653-0.517-0.813-0.914-0.059-0.179-0.079-0.369-0.058-0.557s0.081-0.369 0.177-0.529c0.126-0.25 0.326-0.451 0.569-0.571 0.247-0.108 0.521-0.13 0.78-0.063l-0.157-1.68 0.385 0.263zM7.762 26.377c-0.127 0.034-0.247 0.094-0.351 0.178s-0.192 0.188-0.258 0.308c-0.065 0.12-0.107 0.253-0.122 0.39s-0.005 0.277 0.032 0.41c0.127 0.296 0.347 0.536 0.623 0.68l0.872 0.531 0.948-1.714-0.873-0.531c-0.251-0.198-0.56-0.297-0.873-0.28v0.029z"></path>
<path d="M5.172 21.892l0.244-0.257 1.87 2.029-2.71 2.789-1.805-1.966 0.249-0.257 1.534 1.663 0.927-0.989-1.344-1.474 0.26-0.263 1.371 1.486 1.008-1.034-1.604-1.726z"></path>
<path d="M1.145 19.646l0.13-0.789 0.255 0.040-0.146 0.811 0.721-0.28 0.087 0.251-0.732 0.263 0.602 0.537-0.173 0.206-0.58-0.571-0.135 0.811-0.26-0.051 0.152-0.811-0.726 0.274-0.081-0.223 0.726-0.269-0.602-0.531 0.179-0.206 0.585 0.537z"></path>
</symbol>
    
    <!-- Socials icons start -->
    <symbol
      id="icon-facebook"
      viewBox="0 0 32 32"
    >
      <path
        d="M21.329 5.313h2.921V.225C23.746.156 22.013 0 19.994 0c-4.212 0-7.097 2.649-7.097 7.519V12H8.249v5.688h4.648V32h5.699V17.689h4.46l.708-5.688h-5.169V8.082c.001-1.644.444-2.769 2.735-2.769z"
      />
    </symbol>
    <symbol
      id="icon-instagram"
      viewBox="0 0 32 32"
    >
      <path
        d="M31.969 9.408c-.075-1.7-.35-2.869-.744-3.882a7.803 7.803 0 0 0-1.85-2.838A7.867 7.867 0 0 0 26.543.844C25.524.45 24.361.175 22.661.1 20.948.019 20.404 0 16.06 0s-4.888.019-6.595.094c-1.7.075-2.869.35-3.882.744a7.803 7.803 0 0 0-2.838 1.85A7.867 7.867 0 0 0 .901 5.52C.507 6.539.232 7.702.157 9.402c-.081 1.713-.1 2.257-.1 6.601s.019 4.888.094 6.595c.075 1.7.35 2.869.744 3.882a7.895 7.895 0 0 0 1.85 2.838 7.867 7.867 0 0 0 2.832 1.844c1.019.394 2.182.669 3.882.744 1.706.075 2.25.094 6.595.094s4.888-.019 6.595-.094c1.7-.075 2.869-.35 3.882-.744a8.184 8.184 0 0 0 4.682-4.682c.394-1.019.669-2.182.744-3.882.075-1.707.094-2.251.094-6.595s-.006-4.888-.081-6.595zm-2.882 13.065c-.069 1.563-.331 2.407-.55 2.969a5.31 5.31 0 0 1-3.038 3.038c-.563.219-1.413.481-2.969.55-1.688.075-2.194.094-6.464.094s-4.782-.019-6.464-.094c-1.563-.069-2.407-.331-2.969-.55a4.926 4.926 0 0 1-1.838-1.194 4.974 4.974 0 0 1-1.194-1.838c-.219-.563-.481-1.413-.55-2.969-.075-1.688-.094-2.194-.094-6.464s.019-4.782.094-6.464c.069-1.563.331-2.407.55-2.969a4.868 4.868 0 0 1 1.2-1.838A4.974 4.974 0 0 1 6.639 3.55c.563-.219 1.413-.481 2.969-.55 1.688-.075 2.194-.094 6.464-.094 4.276 0 4.782.019 6.464.094 1.563.069 2.407.331 2.969.55a4.914 4.914 0 0 1 1.838 1.194 4.974 4.974 0 0 1 1.194 1.838c.219.563.481 1.413.55 2.969.075 1.688.094 2.194.094 6.464s-.019 4.77-.094 6.458z"
      />
      <path
        d="M16.059 7.783c-4.538 0-8.22 3.682-8.22 8.22s3.682 8.22 8.22 8.22c4.539 0 8.22-3.682 8.22-8.22s-3.682-8.22-8.22-8.22zm0 13.552a5.333 5.333 0 0 1 0-10.664 5.333 5.333 0 0 1 0 10.664zM26.524 7.458a1.919 1.919 0 1 1-3.838 0 1.919 1.919 0 0 1 3.838 0z"
      />
    </symbol>
    <symbol
      id="icon-linkedin"
      viewBox="0 0 32 32"
    >
      <path
        d="M31.992 32v-.001H32V20.263c0-5.741-1.236-10.164-7.948-10.164-3.227 0-5.392 1.771-6.276 3.449h-.093v-2.913h-6.364v21.364h6.627V21.42c0-2.785.528-5.479 3.977-5.479 3.399 0 3.449 3.179 3.449 5.657v10.401h6.62zM.528 10.636h6.635V32H.528V10.636zM3.843 0C1.722 0 0 1.721 0 3.843s1.721 3.879 3.843 3.879c2.121 0 3.843-1.757 3.843-3.879A3.846 3.846 0 0 0 3.843 0z"
      />
    </symbol>
    <symbol
      id="icon-twitter"
      viewBox="0 0 32 32"
    >
      <path
        d="M32 6.078c-1.19.522-2.458.868-3.78 1.036a6.523 6.523 0 0 0 2.886-3.626 13.11 13.11 0 0 1-4.16 1.588A6.574 6.574 0 0 0 22.154 3c-3.632 0-6.556 2.948-6.556 6.562 0 .52.044 1.02.152 1.496-5.454-.266-10.28-2.88-13.522-6.862a6.605 6.605 0 0 0-.898 3.316 6.57 6.57 0 0 0 2.914 5.452 6.479 6.479 0 0 1-2.964-.808v.072c0 3.188 2.274 5.836 5.256 6.446a6.548 6.548 0 0 1-1.72.216 5.8 5.8 0 0 1-1.242-.112c.85 2.598 3.262 4.508 6.13 4.57a13.182 13.182 0 0 1-8.134 2.798c-.538 0-1.054-.024-1.57-.09A18.469 18.469 0 0 0 10.064 29c12.072 0 18.672-10 18.672-18.668 0-.29-.01-.57-.024-.848A13.087 13.087 0 0 0 32 6.078z"
      />
    </symbol>
    <!-- Socials icons end -->

    <!-- Checkbox icons start -->
    <symbol
      id="icon-checkbox-checked"
      viewBox="0 0 32 32"
    >
      <path
        style="fill: var(--checkbox-body, #3b4256)"
        d="M24 5.714h-16c-1.269 0-2.286 1.029-2.286 2.286v16c0 1.257 1.017 2.286 2.286 2.286h16c1.269 0 2.286-1.029 2.286-2.286v-16c0-1.257-1.017-2.286-2.286-2.286zM13.714 21.714l-5.714-5.714 1.611-1.611 4.103 4.091 8.674-8.674 1.611 1.623-10.286 10.286z"
      ></path>
    </symbol>
    <symbol
      id="icon-checkbox-outline"
      viewBox="0 0 32 32"
    >
      <path
        style="fill: var(--checkbox-body, #3b4256)"
        d="M24 8v16h-16v-16h16zM24 5.714h-16c-1.257 0-2.286 1.029-2.286 2.286v16c0 1.257 1.029 2.286 2.286 2.286h16c1.257 0 2.286-1.029 2.286-2.286v-16c0-1.257-1.029-2.286-2.286-2.286z"
      ></path>
    </symbol>
    <!-- Checkbox icons end -->

    <!-- Contacts icons start -->
    <symbol
      id="icon-map-pin"
      viewBox="0 0 32 32"
    >
      <path
        fill="none"
        stroke="#9da4bd"
        style="stroke: var(--color1, #9da4bd)"
        stroke-linejoin="round"
        stroke-linecap="round"
        stroke-miterlimit="4"
        stroke-width="1.3333"
        d="M26.667 13.818c0 7.636-10.667 14.182-10.667 14.182s-10.667-6.545-10.667-14.182c0-5.422 4.776-9.818 10.667-9.818s10.667 4.396 10.667 9.818v0z"
      ></path>
      <path
        fill="none"
        stroke="#9da4bd"
        style="stroke: var(--color1, #9da4bd)"
        stroke-linejoin="round"
        stroke-linecap="round"
        stroke-miterlimit="4"
        stroke-width="1.3333"
        d="M16 18.667c2.209 0 4-1.791 4-4s-1.791-4-4-4-4 1.791-4 4c0 2.209 1.791 4 4 4z"
      ></path>
    </symbol>

    <symbol
      id="icon-phone"
      viewBox="0 0 32 32"
    >
      <path
        fill="none"
        stroke="#9da4bd"
        style="stroke: var(--color1, #9da4bd)"
        stroke-linejoin="round"
        stroke-linecap="round"
        stroke-miterlimit="4"
        stroke-width="1.3333"
        d="M26.666 21.337v3.218c0.002 0.604-0.25 1.181-0.695 1.589s-1.042 0.61-1.643 0.556c-3.301-0.359-6.471-1.487-9.257-3.293-2.592-1.647-4.789-3.844-6.436-6.436-1.813-2.798-2.941-5.984-3.293-9.3-0.054-0.6 0.146-1.195 0.552-1.639s0.98-0.698 1.582-0.699h3.218c1.077-0.011 1.995 0.779 2.145 1.845 0.136 1.030 0.388 2.041 0.751 3.014 0.295 0.784 0.106 1.668-0.483 2.263l-1.362 1.362c1.527 2.685 3.75 4.909 6.436 6.436l1.362-1.362c0.596-0.589 1.479-0.777 2.263-0.483 0.973 0.363 1.984 0.615 3.014 0.751 1.079 0.152 1.872 1.088 1.845 2.177z"
      ></path>
    </symbol>
    <symbol
      id="icon-mail"
      viewBox="0 0 32 32"
    >
      <path
        fill="none"
        stroke="#9da4bd"
        style="stroke: var(--color1, #9da4bd)"
        stroke-linejoin="round"
        stroke-linecap="round"
        stroke-miterlimit="4"
        stroke-width="1.3333"
        d="M6.4 6.667h19.2c1.32 0 2.4 1.050 2.4 2.333v14c0 1.283-1.080 2.333-2.4 2.333h-19.2c-1.32 0-2.4-1.050-2.4-2.333v-14c0-1.283 1.080-2.333 2.4-2.333z"
      ></path>
      <path
        fill="none"
        stroke="#9da4bd"
        style="stroke: var(--color1, #9da4bd)"
        stroke-linejoin="round"
        stroke-linecap="round"
        stroke-miterlimit="4"
        stroke-width="1.3333"
        d="M26.667 9.333l-10.667 8-10.667-8"
      ></path>
    </symbol>
    <!-- Contacts icons end -->
    <!-- Menu icons start  -->
    <symbol id="open-menu-icon" viewBox="0 0 32 32">
        <path d="M6.4 11.733v-2.133h19.2v2.133h-19.2zM6.4 17.067h19.2v-2.133h-19.2v2.133zM6.4 22.4h19.2v-2.133h-19.2v2.133z"></path>
    </symbol>
    <symbol id="close-menu-icon" viewBox="0 0 32 32">
        <path d="M23.733 10.304l-1.504-1.504-5.963 5.963-5.963-5.963-1.504 1.504 5.963 5.963-5.963 5.963 1.504 1.504 5.963-5.963 5.963 5.963 1.504-1.504-5.963-5.963 5.963-5.963z"></path>
    </symbol>
    <symbol id="alert_icon" viewBox="0 0 32 32">
      <path d="M17.786 3c-0.366-0.62-1.040-1-1.774-1s-1.406 0.38-1.772 1l-13.964 23.998c-0.173 0.286-0.275 0.632-0.275 1.001s0.102 0.715 0.28 1.010l-0.005-0.009c0.386 0.62 1.060 1.002 1.772 1.002h27.928c0.734 0 1.408-0.38 1.754-1 0.17-0.293 0.27-0.645 0.27-1.020 0-0.361-0.093-0.7-0.256-0.995l0.005 0.011-13.964-23.998zM18.052 25.994h-4.078v-4.006h4.078v4.006zM18.052 19.986h-4.078v-8.012h4.078v8.012z"></path>
    </symbol>
    <symbol id="mastercard_icon" viewBox="0 0 32 32">
      <path d="M26.828 24.572c0 0.378-0.255 0.65-0.622 0.65-0.378 0-0.622-0.289-0.622-0.65s0.244-0.65 0.622-0.65c0.367 0 0.622 0.289 0.622 0.65zM9.561 23.922c-0.395 0-0.622 0.289-0.622 0.65s0.228 0.65 0.622 0.65c0.361 0 0.605-0.272 0.605-0.65-0.006-0.361-0.244-0.65-0.605-0.65zM16.089 23.906c-0.3 0-0.484 0.194-0.528 0.483h1.061c-0.050-0.317-0.244-0.483-0.533-0.483zM22.078 23.922c-0.378 0-0.605 0.289-0.605 0.65s0.228 0.65 0.605 0.65c0.378 0 0.622-0.272 0.622-0.65 0-0.361-0.245-0.65-0.622-0.65zM27.961 25.372c0 0.017 0.017 0.028 0.017 0.061 0 0.017-0.017 0.028-0.017 0.061-0.017 0.017-0.017 0.028-0.028 0.044-0.017 0.017-0.028 0.028-0.061 0.028-0.017 0.017-0.028 0.017-0.061 0.017-0.017 0-0.028 0-0.061-0.017-0.017 0-0.028-0.017-0.044-0.028-0.017-0.017-0.028-0.028-0.028-0.044-0.017-0.028-0.017-0.044-0.017-0.061 0-0.028 0-0.044 0.017-0.061 0-0.028 0.017-0.044 0.028-0.061 0.017-0.017 0.028-0.017 0.044-0.028 0.028-0.017 0.044-0.017 0.061-0.017 0.028 0 0.044 0 0.061 0.017 0.028 0.016 0.044 0.016 0.061 0.028s0.011 0.033 0.028 0.061zM27.839 25.45c0.028 0 0.028-0.017 0.044-0.017 0.017-0.017 0.017-0.028 0.017-0.044s0-0.028-0.017-0.044c-0.016 0-0.028-0.017-0.061-0.017h-0.089v0.194h0.044v-0.078h0.017l0.061 0.078h0.044zM32 6.278v19.556c0 1.472-1.194 2.667-2.667 2.667h-26.667c-1.472 0-2.667-1.194-2.667-2.667v-19.556c0-1.472 1.194-2.667 2.667-2.667h26.667c1.472 0 2.667 1.194 2.667 2.667zM3.556 14.033c0 4.25 3.45 7.694 7.694 7.694 1.511 0 2.994-0.456 4.25-1.283-4.050-3.294-4.022-9.511 0-12.806-1.256-0.833-2.739-1.283-4.25-1.283-4.244-0.005-7.694 3.444-7.694 7.678zM16 20.078c3.917-3.056 3.9-9.011 0-12.083-3.9 3.072-3.917 9.033 0 12.083zM8.094 24.317c0-0.483-0.317-0.8-0.817-0.817-0.256 0-0.528 0.078-0.711 0.361-0.133-0.228-0.361-0.361-0.678-0.361-0.211 0-0.422 0.078-0.589 0.3v-0.244h-0.455v2.039h0.455c0-1.050-0.139-1.678 0.5-1.678 0.567 0 0.456 0.567 0.456 1.678h0.439c0-1.017-0.139-1.678 0.5-1.678 0.567 0 0.455 0.556 0.455 1.678h0.456v-1.278zM10.589 23.556h-0.439v0.244c-0.15-0.183-0.361-0.3-0.65-0.3-0.572 0-1.011 0.456-1.011 1.072 0 0.622 0.439 1.072 1.011 1.072 0.289 0 0.5-0.106 0.65-0.3v0.256h0.439zM12.839 24.978c0-0.833-1.272-0.456-1.272-0.845 0-0.317 0.661-0.266 1.028-0.061l0.183-0.361c-0.522-0.339-1.678-0.333-1.678 0.456 0 0.794 1.272 0.461 1.272 0.833 0 0.35-0.75 0.322-1.15 0.044l-0.194 0.35c0.622 0.422 1.811 0.333 1.811-0.417zM14.806 25.494l-0.122-0.378c-0.211 0.116-0.678 0.244-0.678-0.228v-0.922h0.728v-0.411h-0.728v-0.622h-0.456v0.622h-0.422v0.406h0.422v0.928c0 0.978 0.961 0.8 1.256 0.605zM15.544 24.75h1.528c0-0.9-0.411-1.256-0.967-1.256-0.589 0-1.011 0.439-1.011 1.072 0 1.139 1.256 1.328 1.878 0.789l-0.211-0.333c-0.433 0.356-1.089 0.322-1.217-0.272zM18.828 23.556c-0.255-0.111-0.644-0.1-0.844 0.244v-0.244h-0.456v2.039h0.456v-1.15c0-0.645 0.528-0.561 0.711-0.467zM19.417 24.572c0-0.634 0.645-0.839 1.15-0.467l0.211-0.361c-0.645-0.505-1.817-0.228-1.817 0.833 0 1.1 1.244 1.322 1.817 0.833l-0.211-0.361c-0.511 0.361-1.15 0.145-1.15-0.478zM23.122 23.556h-0.456v0.244c-0.461-0.611-1.661-0.266-1.661 0.772 0 1.067 1.244 1.372 1.661 0.772v0.256h0.456zM24.994 23.556c-0.133-0.067-0.611-0.161-0.844 0.244v-0.244h-0.439v2.039h0.439v-1.15c0-0.611 0.5-0.572 0.711-0.467zM27.233 22.728h-0.439v1.072c-0.456-0.605-1.661-0.283-1.661 0.772 0 1.078 1.25 1.366 1.661 0.772v0.256h0.439zM27.656 18.556v0.256h0.044v-0.256h0.105v-0.044h-0.256v0.044zM28.022 25.433c0-0.028 0-0.061-0.016-0.089-0.017-0.017-0.028-0.044-0.044-0.061s-0.044-0.028-0.061-0.044c-0.028 0-0.061-0.017-0.089-0.017-0.017 0-0.044 0.017-0.078 0.017-0.028 0.017-0.044 0.028-0.061 0.044-0.028 0.016-0.044 0.044-0.044 0.061-0.017 0.028-0.017 0.061-0.017 0.089 0 0.017 0 0.044 0.017 0.078 0 0.017 0.017 0.044 0.044 0.061 0.016 0.017 0.028 0.028 0.061 0.044 0.028 0.016 0.061 0.016 0.078 0.016 0.028 0 0.061 0 0.089-0.016 0.017-0.017 0.044-0.028 0.061-0.044s0.028-0.044 0.044-0.061c0.016-0.033 0.016-0.061 0.016-0.078zM28.2 18.506h-0.078l-0.089 0.194-0.089-0.194h-0.078v0.3h0.044v-0.228l0.089 0.194h0.061l0.078-0.194v0.228h0.061zM28.444 14.033c0-4.234-3.45-7.683-7.694-7.683-1.511 0-2.994 0.455-4.25 1.283 4.006 3.295 4.067 9.528 0 12.806 1.256 0.833 2.75 1.283 4.25 1.283 4.244 0.006 7.694-3.439 7.694-7.689z"></path>
    </symbol>

    <symbol id="visa_icon1" viewBox="0 0 32 32">
      <path d="M26.117 14.628c0 0 0.422 2.067 0.517 2.5h-1.855c0.183-0.495 0.889-2.417 0.889-2.417-0.011 0.017 0.183-0.506 0.294-0.828zM32 6.222v19.556c0 1.472-1.194 2.667-2.667 2.667h-26.667c-1.472 0-2.667-1.194-2.667-2.667v-19.556c0-1.472 1.194-2.667 2.667-2.667h26.667c1.472 0 2.667 1.194 2.667 2.667zM8.472 20.178l3.511-8.622h-2.361l-2.183 5.889-0.239-1.194-0.778-3.967c-0.128-0.55-0.522-0.706-1.011-0.728h-3.594l-0.039 0.172c0.878 0.222 1.661 0.544 2.344 0.95l1.989 7.5zM13.717 20.189l1.4-8.633h-2.233l-1.394 8.633zM21.489 17.367c0.011-0.983-0.589-1.733-1.872-2.35-0.783-0.395-1.261-0.661-1.261-1.067 0.011-0.367 0.406-0.745 1.283-0.745 0.728-0.017 1.261 0.156 1.661 0.328l0.2 0.094 0.306-1.867c-0.439-0.172-1.139-0.367-2-0.367-2.206 0-3.756 1.178-3.767 2.855-0.017 1.239 1.111 1.928 1.956 2.344 0.861 0.422 1.156 0.7 1.156 1.072-0.011 0.578-0.7 0.844-1.339 0.844-0.889 0-1.367-0.139-2.095-0.461l-0.294-0.139-0.311 1.939c0.522 0.239 1.489 0.45 2.489 0.461 2.344 0.005 3.872-1.156 3.889-2.944zM29.333 20.189l-1.8-8.633h-1.728c-0.533 0-0.939 0.156-1.167 0.717l-3.317 7.917h2.344c0 0 0.383-1.067 0.467-1.294h2.867c0.067 0.306 0.267 1.294 0.267 1.294z"></path>
    </symbol>
  </defs>
</svg>
